<?xml version="1.0" standalone="no"?>
 <!DOCTYPE svg PUBLIC "-//W3C//DTD SVG 1.1//EN" 
 "http://www.w3.org/Graphics/SVG/1.1/DTD/svg11.dtd"> 
<svg
  xmlns:svg="http://www.w3.org/2000/svg"
  xmlns="http://www.w3.org/2000/svg"
  xmlns:xlink="http://www.w3.org/1999/xlink"
  xmlns:inkscape="http://www.inkscape.org/namespaces/inkscape"
  version="1.1"
  width="297.0022mm" height="210.0072mm" viewBox="0.0000 0.0000 297.0022 210.0072">
<title>SVG Image created as mpe32board-Edge_Cuts.svg date 2026-05-16T21:23:14 </title>
  <desc>Image generated by PCBNEW </desc>
<g style="fill:#000000; fill-opacity:1.0000;stroke:#000000; stroke-opacity:1.0000;
stroke-linecap:round; stroke-linejoin:round;"
 transform="translate(0 0) scale(1 1)">
</g>
<g style="fill:none; 
stroke:#000000; stroke-width:0.0500; stroke-opacity:1; 
stroke-linecap:round; stroke-linejoin:round;">
<path d="M63.0000 80.0000 A3.0000 3.0000 0.0 0 0 60.0000 83.0000" />
<path d="M60.0000 156.0000
L60.0000 83.0000
" />
<path d="M63.0000 80.0000
L155.0000 80.0000
" />
<path d="M60.0000 156.0000 A3.0000 3.0000 0.0 0 0 63.0000 159.0000" />
<path d="M158.0000 83.0000 A3.0000 3.0000 0.0 0 0 155.0000 80.0000" />
<path d="M155.0000 159.0000
L63.0000 159.0000
" />
<path d="M158.0000 83.0000
L158.0000 156.0000
" />
<path d="M155.0000 159.0000 A3.0000 3.0000 0.0 0 0 158.0000 156.0000" />
</g>
<g style="fill:none; 
stroke:#000000; stroke-width:0.1200; stroke-opacity:1; 
stroke-linecap:round; stroke-linejoin:round;">
<path d="M72.2200 153.9004 A0.3000 0.3000 0.0 0 0 72.2639 154.0567" />
<path d="M71.5767 154.7439 A0.5000 0.5000 0.0 0 0 72.2639 154.0567" />
<path d="M72.2639 152.3433 A0.3000 0.3000 0.0 0 0 72.2200 152.4996" />
<path d="M72.2639 152.3433 A0.5000 0.5000 0.0 0 0 71.5767 151.6561" />
<path d="M71.4204 151.7000 A0.3000 0.3000 0.0 0 0 71.5767 151.6561" />
<path d="M71.5767 154.7439 A0.3000 0.3000 0.0 0 0 71.4204 154.7000" />
<path d="M69.4633 151.6561 A0.3000 0.3000 0.0 0 0 69.6196 151.7000" />
<path d="M69.6196 154.7000 A0.3000 0.3000 0.0 0 0 69.4633 154.7439" />
<path d="M68.7761 154.0567 A0.5000 0.5000 0.0 0 0 69.4633 154.7439" />
<path d="M68.7761 154.0567 A0.2997 0.2997 0.0 0 0 68.8200 153.9004" />
<path d="M69.4633 151.6561 A0.5000 0.5000 0.0 0 0 68.7761 152.3433" />
<path d="M68.8200 152.4996 A0.3000 0.3000 0.0 0 0 68.7761 152.3433" />
<path d="M72.2200 153.2000
L72.2200 153.9004
" />
<path d="M72.2200 153.2000
L72.2200 152.4996
" />
<path d="M70.5200 154.7000
L71.4204 154.7000
" />
<path d="M70.5200 154.7000
L69.6196 154.7000
" />
<path d="M70.5200 151.7000
L71.4204 151.7000
" />
<path d="M70.5200 151.7000
L69.6196 151.7000
" />
<path d="M68.8200 153.2000
L68.8200 153.9004
" />
<path d="M68.8200 153.2000
L68.8200 152.4996
" />
<path d="M138.1800 143.9900
L138.1800 143.0896
" />
<path d="M138.1800 143.9900
L138.1800 144.8904
" />
<path d="M139.6800 142.2900
L138.9796 142.2900
" />
<path d="M139.6800 142.2900
L140.3804 142.2900
" />
<path d="M139.6800 145.6900
L138.9796 145.6900
" />
<path d="M139.6800 145.6900
L140.3804 145.6900
" />
<path d="M141.1800 143.9900
L141.1800 143.0896
" />
<path d="M141.1800 143.9900
L141.1800 144.8904
" />
<path d="M138.1800 143.0896 A0.3000 0.3000 0.0 0 0 138.1361 142.9333" />
<path d="M138.8233 142.2461 A0.5000 0.5000 0.0 0 0 138.1361 142.9333" />
<path d="M138.1361 145.0467 A0.3000 0.3000 0.0 0 0 138.1800 144.8904" />
<path d="M138.1361 145.0467 A0.5000 0.5000 0.0 0 0 138.8233 145.7339" />
<path d="M138.9796 145.6900 A0.3000 0.3000 0.0 0 0 138.8233 145.7339" />
<path d="M138.8233 142.2461 A0.3000 0.3000 0.0 0 0 138.9796 142.2900" />
<path d="M140.5367 145.7339 A0.2997 0.2997 0.0 0 0 140.3804 145.6900" />
<path d="M140.3804 142.2900 A0.3000 0.3000 0.0 0 0 140.5367 142.2461" />
<path d="M141.2239 142.9333 A0.5000 0.5000 0.0 0 0 140.5367 142.2461" />
<path d="M141.2239 142.9333 A0.3000 0.3000 0.0 0 0 141.1800 143.0896" />
<path d="M140.5367 145.7339 A0.5000 0.5000 0.0 0 0 141.2239 145.0467" />
<path d="M141.1800 144.8904 A0.3000 0.3000 0.0 0 0 141.2239 145.0467" />
<path d="M126.1300 153.2000
L126.1300 152.4996
" />
<path d="M126.1300 153.2000
L126.1300 153.9004
" />
<path d="M127.8300 151.7000
L126.9296 151.7000
" />
<path d="M127.8300 151.7000
L128.7304 151.7000
" />
<path d="M127.8300 154.7000
L126.9296 154.7000
" />
<path d="M127.8300 154.7000
L128.7304 154.7000
" />
<path d="M129.5300 153.2000
L129.5300 152.4996
" />
<path d="M129.5300 153.2000
L129.5300 153.9004
" />
<path d="M126.1300 152.4996 A0.3000 0.3000 0.0 0 0 126.0861 152.3433" />
<path d="M126.7733 151.6561 A0.5000 0.5000 0.0 0 0 126.0861 152.3433" />
<path d="M126.0861 154.0567 A0.2997 0.2997 0.0 0 0 126.1300 153.9004" />
<path d="M126.0861 154.0567 A0.5000 0.5000 0.0 0 0 126.7733 154.7439" />
<path d="M126.9296 154.7000 A0.3000 0.3000 0.0 0 0 126.7733 154.7439" />
<path d="M126.7733 151.6561 A0.3000 0.3000 0.0 0 0 126.9296 151.7000" />
<path d="M128.8867 154.7439 A0.3000 0.3000 0.0 0 0 128.7304 154.7000" />
<path d="M128.7304 151.7000 A0.3000 0.3000 0.0 0 0 128.8867 151.6561" />
<path d="M129.5739 152.3433 A0.5000 0.5000 0.0 0 0 128.8867 151.6561" />
<path d="M129.5739 152.3433 A0.3000 0.3000 0.0 0 0 129.5300 152.4996" />
<path d="M128.8867 154.7439 A0.5000 0.5000 0.0 0 0 129.5739 154.0567" />
<path d="M129.5300 153.9004 A0.3000 0.3000 0.0 0 0 129.5739 154.0567" />
<path d="M138.1700 153.2250
L138.1700 152.3246
" />
<path d="M138.1700 153.2250
L138.1700 154.1254
" />
<path d="M139.6700 151.5250
L138.9696 151.5250
" />
<path d="M139.6700 151.5250
L140.3704 151.5250
" />
<path d="M139.6700 154.9250
L138.9696 154.9250
" />
<path d="M139.6700 154.9250
L140.3704 154.9250
" />
<path d="M141.1700 153.2250
L141.1700 152.3246
" />
<path d="M141.1700 153.2250
L141.1700 154.1254
" />
<path d="M138.1700 152.3246 A0.3000 0.3000 0.0 0 0 138.1261 152.1683" />
<path d="M138.8133 151.4811 A0.5000 0.5000 0.0 0 0 138.1261 152.1683" />
<path d="M138.1261 154.2817 A0.3000 0.3000 0.0 0 0 138.1700 154.1254" />
<path d="M138.1261 154.2817 A0.5000 0.5000 0.0 0 0 138.8133 154.9689" />
<path d="M138.9696 154.9250 A0.3000 0.3000 0.0 0 0 138.8133 154.9689" />
<path d="M138.8133 151.4811 A0.3000 0.3000 0.0 0 0 138.9696 151.5250" />
<path d="M140.5267 154.9689 A0.2997 0.2997 0.0 0 0 140.3704 154.9250" />
<path d="M140.3704 151.5250 A0.3000 0.3000 0.0 0 0 140.5267 151.4811" />
<path d="M141.2139 152.1683 A0.5000 0.5000 0.0 0 0 140.5267 151.4811" />
<path d="M141.2139 152.1683 A0.3000 0.3000 0.0 0 0 141.1700 152.3246" />
<path d="M140.5267 154.9689 A0.5000 0.5000 0.0 0 0 141.2139 154.2817" />
<path d="M141.1700 154.1254 A0.3000 0.3000 0.0 0 0 141.2139 154.2817" />
<path d="M107.0267 153.2000
L107.0267 152.4996
" />
<path d="M107.0267 153.2000
L107.0267 153.9004
" />
<path d="M108.7267 151.7000
L107.8263 151.7000
" />
<path d="M108.7267 151.7000
L109.6270 151.7000
" />
<path d="M108.7267 154.7000
L107.8263 154.7000
" />
<path d="M108.7267 154.7000
L109.6270 154.7000
" />
<path d="M110.4267 153.2000
L110.4267 152.4996
" />
<path d="M110.4267 153.2000
L110.4267 153.9004
" />
<path d="M107.0266 152.4996 A0.3000 0.3000 0.0 0 0 106.9827 152.3433" />
<path d="M107.6700 151.6561 A0.5000 0.5000 0.0 0 0 106.9827 152.3433" />
<path d="M106.9827 154.0567 A0.2997 0.2997 0.0 0 0 107.0267 153.9004" />
<path d="M106.9827 154.0567 A0.5000 0.5000 0.0 0 0 107.6700 154.7439" />
<path d="M107.8263 154.7000 A0.3000 0.3000 0.0 0 0 107.6700 154.7439" />
<path d="M107.6700 151.6561 A0.3000 0.3000 0.0 0 0 107.8263 151.7000" />
<path d="M109.7833 154.7439 A0.3000 0.3000 0.0 0 0 109.6270 154.7000" />
<path d="M109.6270 151.7000 A0.3000 0.3000 0.0 0 0 109.7833 151.6561" />
<path d="M110.4706 152.3433 A0.5000 0.5000 0.0 0 0 109.7833 151.6561" />
<path d="M110.4706 152.3433 A0.3000 0.3000 0.0 0 0 110.4267 152.4996" />
<path d="M109.7833 154.7439 A0.5000 0.5000 0.0 0 0 110.4706 154.0567" />
<path d="M110.4267 153.9004 A0.3000 0.3000 0.0 0 0 110.4706 154.0567" />
<path d="M87.9233 153.2000
L87.9233 152.4996
" />
<path d="M87.9233 153.2000
L87.9233 153.9004
" />
<path d="M89.6233 151.7000
L88.7230 151.7000
" />
<path d="M89.6233 151.7000
L90.5237 151.7000
" />
<path d="M89.6233 154.7000
L88.7230 154.7000
" />
<path d="M89.6233 154.7000
L90.5237 154.7000
" />
<path d="M91.3233 153.2000
L91.3233 152.4996
" />
<path d="M91.3233 153.2000
L91.3233 153.9004
" />
<path d="M87.9233 152.4996 A0.3000 0.3000 0.0 0 0 87.8794 152.3433" />
<path d="M88.5667 151.6561 A0.5000 0.5000 0.0 0 0 87.8794 152.3433" />
<path d="M87.8794 154.0567 A0.2997 0.2997 0.0 0 0 87.9233 153.9004" />
<path d="M87.8794 154.0567 A0.5000 0.5000 0.0 0 0 88.5667 154.7439" />
<path d="M88.7230 154.7000 A0.3000 0.3000 0.0 0 0 88.5667 154.7439" />
<path d="M88.5667 151.6561 A0.3000 0.3000 0.0 0 0 88.7230 151.7000" />
<path d="M90.6800 154.7439 A0.3000 0.3000 0.0 0 0 90.5237 154.7000" />
<path d="M90.5237 151.7000 A0.3000 0.3000 0.0 0 0 90.6800 151.6561" />
<path d="M91.3673 152.3433 A0.5000 0.5000 0.0 0 0 90.6800 151.6561" />
<path d="M91.3673 152.3433 A0.3000 0.3000 0.0 0 0 91.3233 152.4996" />
<path d="M90.6800 154.7439 A0.5000 0.5000 0.0 0 0 91.3673 154.0567" />
<path d="M91.3233 153.9004 A0.3000 0.3000 0.0 0 0 91.3673 154.0567" />
</g> 
</svg>
